<svg width="38" height="38" viewBox="0 0 38 38" fill="none" xmlns="http://www.w3.org/2000/svg">
<g clip-path="url(#clip0_0_647)">
<path d="M37.4784 14.9435C37.4774 14.9419 37.4768 14.9401 37.4758 14.9385L33.5576 8.47275C32.6675 7.00322 31.047 6.09033 29.3284 6.09033H14.7532C13.0631 6.09033 11.5085 6.93858 10.5948 8.35905L6.47781 14.7549L1.50055 17.2429C0.574973 17.7057 0 18.6361 0 19.671V24.8751C0 25.6256 0.314984 26.3495 0.86398 26.8608L1.91462 27.8402C2.41909 28.3097 3.07629 28.5683 3.76512 28.5683H4.90853C5.25884 30.4666 6.92528 31.9096 8.92347 31.9096C10.9217 31.9096 12.588 30.4667 12.9384 28.5683H16.242C16.6519 28.5683 16.9841 28.2359 16.9841 27.8261C16.9841 27.4163 16.6519 27.0839 16.242 27.0839H12.94C12.5883 25.1743 10.8644 23.7419 8.9234 23.7419C6.98176 23.7419 5.25877 25.1762 4.90742 27.0839H3.76512C3.4528 27.0839 3.15474 26.9667 2.92637 26.7541L1.87595 25.7749C1.6271 25.5431 1.48438 25.2151 1.48438 24.8751V24.5126H2.83939C4.02355 24.5126 4.98698 23.5493 4.98698 22.3651V21.6732C4.98698 20.4891 4.02362 19.5256 2.83939 19.5256H1.49343C1.54123 19.1162 1.78875 18.7583 2.16429 18.5705L7.16738 16.0697H15.6679C16.5146 16.0697 17.2034 15.3809 17.2034 14.5342V10.8426C17.2034 9.99587 16.5146 9.30705 15.6679 9.30705H11.75L11.8432 9.16232C12.4826 8.16823 13.5704 7.57478 14.7532 7.57478H29.3283C30.4485 7.57478 31.5086 8.12927 32.1521 9.03615H31.9415C31.0948 9.03615 30.406 9.72497 30.406 10.5716V14.5297C30.406 15.3764 31.0948 16.0653 31.9415 16.0653H36.3787C36.4683 16.3039 36.5155 16.5575 36.5155 16.8149V24.9471C36.5155 25.9608 35.8059 26.8118 34.8575 27.0298C34.4842 25.1439 32.771 23.7418 30.8512 23.7418C28.9099 23.7418 27.1856 25.176 26.8353 27.0839H22.9541C22.5442 27.0839 22.2119 27.4162 22.2119 27.826C22.2119 28.2359 22.5442 28.5682 22.9541 28.5682H26.8364C27.1867 30.4665 28.8531 31.9095 30.8512 31.9095C32.8615 31.9095 34.536 30.4491 34.8723 28.5337C36.6363 28.2921 37.9999 26.7764 37.9999 24.9471V16.8149C38 16.1543 37.8194 15.5071 37.4784 14.9435ZM8.9234 30.4251C7.49097 30.4251 6.32544 29.2604 6.32403 27.8283C6.33027 26.787 6.96224 25.8282 7.92627 25.4257C8.24147 25.2941 8.58191 25.2262 8.92347 25.2262C10.3568 25.2262 11.5229 26.3924 11.5229 27.8257C11.5228 29.2591 10.3567 30.4251 8.9234 30.4251ZM3.50261 21.6733V22.3652C3.50261 22.7308 3.20514 23.0283 2.83939 23.0283H1.48438V21.0102H2.83939C3.20514 21.0101 3.50261 21.3076 3.50261 21.6733ZM15.6679 10.7913C15.6961 10.7913 15.719 10.8144 15.719 10.8425V14.5341C15.719 14.5623 15.6961 14.5853 15.6679 14.5853H8.3525L10.7945 10.7913H15.6679V10.7913ZM30.8513 30.4251C29.4191 30.4251 28.2537 29.2607 28.252 27.8289C28.252 27.8279 28.2522 27.827 28.2522 27.8261C28.2522 26.7957 28.8545 25.9034 29.7254 25.483C30.0662 25.3186 30.4482 25.2263 30.8513 25.2263C32.2846 25.2263 33.4508 26.3924 33.4508 27.8257C33.4508 29.2591 32.2846 30.4251 30.8513 30.4251ZM31.8904 14.5298V10.5717C31.8904 10.5435 31.9134 10.5206 31.9415 10.5206H33.0627L35.5231 14.581H31.9415C31.9133 14.581 31.8904 14.558 31.8904 14.5298Z" fill="#1967D2"/>
<path d="M28.5 14.5342V10.8425C28.5 9.99583 27.8112 9.30701 26.9646 9.30701H20.684C19.8374 9.30701 19.1486 9.99583 19.1486 10.8425V14.5342C19.1486 15.3808 19.8374 16.0697 20.684 16.0697H26.9646C27.8112 16.0697 28.5 15.3808 28.5 14.5342ZM20.6329 14.5342V10.8425C20.6329 10.8143 20.6558 10.7914 20.6839 10.7914H26.9645C26.9927 10.7914 27.0156 10.8144 27.0156 10.8425V14.5342C27.0156 14.5624 26.9927 14.5853 26.9645 14.5853H20.6839C20.6558 14.5854 20.6329 14.5624 20.6329 14.5342Z" fill="#1967D2"/>
<path d="M14.1464 18.844C13.7365 18.844 13.4042 19.1763 13.4042 19.5862C13.4042 19.996 13.7365 20.3284 14.1464 20.3284H15.8195C16.2295 20.3284 16.5617 19.996 16.5617 19.5862C16.5617 19.1763 16.2295 18.844 15.8195 18.844H14.1464Z" fill="#1967D2"/>
<path d="M20.3375 27.5418C20.2157 27.2495 19.9137 27.0622 19.5975 27.0857C19.2753 27.1097 18.9996 27.3478 18.9284 27.6629C18.7819 28.3114 19.5354 28.8123 20.0794 28.4323C20.3602 28.2363 20.4693 27.8578 20.3375 27.5418Z" fill="#1967D2"/>
</g>
<defs>
<clipPath id="clip0_0_647">
<rect width="38" height="38" fill="white"/>
</clipPath>
</defs>
</svg>
