<svg width="26" height="28" viewBox="0 0 26 28" fill="none" xmlns="http://www.w3.org/2000/svg">
<path d="M24.3333 11.587H20.4799C17.3199 11.587 14.7466 9.01366 14.7466 5.85366V2.00033C14.7466 1.26699 14.1466 0.666992 13.4133 0.666992H7.75992C3.65325 0.666992 0.333252 3.33366 0.333252 8.09366V19.907C0.333252 24.667 3.65325 27.3337 7.75992 27.3337H18.2399C22.3466 27.3337 25.6666 24.667 25.6666 19.907V12.9203C25.6666 12.187 25.0666 11.587 24.3333 11.587ZM13.3733 19.0403L10.7066 21.707C10.6133 21.8003 10.4933 21.8803 10.3733 21.9203C10.2533 21.9737 10.1333 22.0003 9.99992 22.0003C9.86659 22.0003 9.74659 21.9737 9.62659 21.9203C9.51992 21.8803 9.41325 21.8003 9.33325 21.7203C9.31992 21.707 9.30659 21.707 9.30659 21.6937L6.63992 19.027C6.25325 18.6403 6.25325 18.0003 6.63992 17.6137C7.02659 17.227 7.66659 17.227 8.05325 17.6137L8.99992 18.587V13.0003C8.99992 12.4537 9.45325 12.0003 9.99992 12.0003C10.5466 12.0003 10.9999 12.4537 10.9999 13.0003V18.587L11.9599 17.627C12.3466 17.2403 12.9866 17.2403 13.3733 17.627C13.7599 18.0137 13.7599 18.6537 13.3733 19.0403Z" fill="#4699FB"/>
</svg>
