<svg width="18" height="18" viewBox="0 0 18 18" fill="none" xmlns="http://www.w3.org/2000/svg">
<path d="M9.49973 1C5.91572 1 3 3.91611 3 7.50051C3 10.0617 4.07228 12.6525 6.10093 14.9927C7.61613 16.7407 9.11772 17.731 9.18096 17.7723C9.27777 17.8356 9.38879 17.8673 9.49981 17.8673C9.61075 17.8673 9.72177 17.8356 9.81865 17.7723C9.88181 17.731 11.3836 16.7407 12.8988 14.9928C14.9276 12.6525 16 10.0617 16 7.50051C15.9999 3.91611 13.0839 1 9.49973 1ZM9.49973 16.5691C8.30431 15.6783 4.16535 12.25 4.16535 7.50051C4.16535 4.55868 6.55829 2.16535 9.49973 2.16535C12.4414 2.16535 14.8346 4.55868 14.8346 7.50051C14.8346 12.25 10.6952 15.6783 9.49973 16.5691Z" fill="#696969"/>
<path d="M9.5002 4.91943C8.07769 4.91943 6.92041 6.07679 6.92041 7.49945C6.92041 8.92173 8.07769 10.0788 9.5002 10.0788C10.9227 10.0788 12.0799 8.92173 12.0799 7.49945C12.0799 6.07686 10.9226 4.91943 9.5002 4.91943ZM9.5002 8.91349C8.72026 8.91349 8.08577 8.27915 8.08577 7.49945C8.08577 6.71936 8.72026 6.08479 9.5002 6.08479C10.2801 6.08479 10.9145 6.71936 10.9145 7.49945C10.9145 8.27915 10.2801 8.91349 9.5002 8.91349Z" fill="#696969"/>
</svg>
