<svg width="42" height="42" viewBox="0 0 42 42" fill="none" xmlns="http://www.w3.org/2000/svg">
<path fill-rule="evenodd" clip-rule="evenodd" d="M8.49878 3.5C5.73736 3.5 3.49878 5.73858 3.49878 8.5V33.5C3.49878 36.2614 5.73736 38.5 8.49878 38.5H33.4988C36.2602 38.5 38.4988 36.2614 38.4988 33.5V8.5C38.4988 5.73858 36.2602 3.5 33.4988 3.5H8.49878ZM31.4988 12.25C32.4653 12.25 33.2488 11.4665 33.2488 10.5C33.2488 9.5335 32.4653 8.75 31.4988 8.75C30.5323 8.75 29.7488 9.5335 29.7488 10.5C29.7488 11.4665 30.5323 12.25 31.4988 12.25ZM29.7488 21C29.7488 25.8325 25.8313 29.75 20.9988 29.75C16.1663 29.75 12.2488 25.8325 12.2488 21C12.2488 16.1675 16.1663 12.25 20.9988 12.25C25.8313 12.25 29.7488 16.1675 29.7488 21ZM20.9988 26.25C23.8983 26.25 26.2488 23.8995 26.2488 21C26.2488 18.1005 23.8983 15.75 20.9988 15.75C18.0993 15.75 15.7488 18.1005 15.7488 21C15.7488 23.8995 18.0993 26.25 20.9988 26.25Z" fill="white"/>
</svg>
