<svg width="160" height="50" viewBox="0 0 160 50" fill="none" xmlns="http://www.w3.org/2000/svg">
<g clip-path="url(#clip0_14_130)">
<path fill-rule="evenodd" clip-rule="evenodd" d="M16.7359 35.889C17.8294 36.7039 18.7806 37.1658 20.2414 37.5446C20.6822 36.7681 21.5502 36.0173 22.1469 35.3615C22.8089 34.6338 23.509 33.4773 24.2311 33.253C24.7396 34.5556 24.4472 36.4116 24.1432 37.9102C25.3841 38.067 27.7496 37.617 28.5605 36.7838C30.9093 29.2676 26.8261 22.5868 34.3352 11.8469C34.8158 11.1596 35.9021 10.2175 36.4956 9.57954C30.3146 10.577 27.6561 17.6591 26.0139 18.4933L25.6711 18.5438C23.2345 18.6846 23.0243 18.2704 20.4058 16.9405C17.0616 15.2419 13.7713 14.1901 10.4306 14.8625C9.91646 14.192 10.1399 14.0524 9.52323 13.6409L8.92775 14.0212C9.61553 14.6485 9.5146 13.8508 10.0981 15.1077C10.8712 16.7733 10.0776 15.8364 10.2915 16.8006C11.3789 16.6621 10.9352 16.3715 10.7902 15.3959C16.4509 16.119 19.139 18.7589 20.1424 22.8962C21.3966 28.0678 19.4804 32.0919 16.7359 35.889Z" fill="#1967D2"/>
<path fill-rule="evenodd" clip-rule="evenodd" d="M28.5359 36.7618C27.7256 37.5942 25.3619 38.0439 24.1219 37.8872C23.006 38.1964 21.5032 37.8432 20.2231 37.5219C18.7634 37.1434 17.8129 36.682 16.7202 35.8678C12.2572 32.9643 10.2046 27.2376 11.5335 22.1345C12.4494 18.6176 13.8461 17.8089 13.9547 16.7686L12.3494 16.1775C11.9711 16.4899 11.6447 17.002 11.3933 17.411C10.8043 18.3693 10.9888 18.0254 11.2186 18.7649C11.7969 20.6264 10.6277 20.5506 9.7424 21.385C7.92269 28.3024 11.1473 34.7082 16.0384 37.7763C22.6814 41.9433 30.2859 39.5013 33.6994 35.7409C36.1211 37.1774 32.7472 35.9303 36.0643 38.6151C37.2053 39.5387 38.1715 40.4112 39.2476 41.3032C40.4777 42.3228 44.6833 46.1475 45.73 46.5643C46.3497 45.9692 48.0369 44.0948 48.4078 43.1081C47.519 41.9424 43.5942 38.9178 42.2597 37.7966L37.5551 33.8302C36.3727 33.338 37.8826 34.6298 35.805 33.427C37.0701 30.049 38.9107 27.6559 37.8913 22.3613C37.3243 19.4164 35.7516 16.133 33.4516 14.2828L32.438 16.1013C36.8804 19.9219 37.6134 28.2382 33.1684 33.4564C32.1138 34.6943 29.7199 36.8346 28.5359 36.7618Z" fill="#1967D2"/>
<path fill-rule="evenodd" clip-rule="evenodd" d="M24.0802 9.6179C19.4451 9.52872 19.7493 17.8991 24.3529 17.7858C28.5564 17.6824 28.4821 9.70258 24.0802 9.6179Z" fill="#1967D2"/>
<path fill-rule="evenodd" clip-rule="evenodd" d="M5.48186 22.6726C6.2527 22.5973 9.23087 21.0182 9.61526 20.5638C6.68115 18.2396 5.03871 19.0762 5.52202 13.7252C5.54448 13.477 5.58064 13.2743 5.58001 13.0295C5.57871 12.4821 5.62237 12.8168 5.50947 12.3874C4.63433 12.6312 3.45618 13.4064 2.51036 13.8428C0.435927 14.8001 2.0147 16.1591 3.63689 19.7702C3.95844 20.4861 4.59704 22.2567 5.48186 22.6726Z" fill="#1967D2"/>
<path fill-rule="evenodd" clip-rule="evenodd" d="M6.61903 11.8043C5.92631 12.8069 5.94191 16.3236 6.41589 17.2054C6.79113 17.9036 7.49258 18.4203 8.17174 18.8883C8.52391 19.1311 8.8526 19.3276 9.25962 19.6027C9.448 19.7301 9.66562 19.9131 9.88119 20.0055C11.5945 20.7399 10.6967 18.807 10.2107 17.8941L8.14158 13.5875C7.77891 12.764 7.73922 11.9786 6.61903 11.8043Z" fill="#1967D2"/>
<path fill-rule="evenodd" clip-rule="evenodd" d="M14.3047 14.0912L16.5311 14.7866C17.5328 13.8635 18.8296 13.3228 20.2167 12.952L20.9245 10.7559C18.9514 10.8186 15.484 12.6919 14.3047 14.0912Z" fill="#1967D2"/>
<path d="M47.0746 31V18.6364H49.6886V24.0877H49.8516L54.3008 18.6364H57.4339L52.8459 24.1722L57.4883 31H54.3612L50.9744 25.9169L49.6886 27.4865V31H47.0746ZM69.4595 24.8182C69.4595 26.1664 69.204 27.3134 68.6928 28.2592C68.1857 29.205 67.4935 29.9274 66.6161 30.4265C65.7428 30.9215 64.7608 31.169 63.6701 31.169C62.5714 31.169 61.5853 30.9195 60.712 30.4205C59.8387 29.9214 59.1484 29.199 58.6413 28.2532C58.1342 27.3074 57.8807 26.1624 57.8807 24.8182C57.8807 23.4699 58.1342 22.3229 58.6413 21.3771C59.1484 20.4313 59.8387 19.7109 60.712 19.2159C61.5853 18.7169 62.5714 18.4673 63.6701 18.4673C64.7608 18.4673 65.7428 18.7169 66.6161 19.2159C67.4935 19.7109 68.1857 20.4313 68.6928 21.3771C69.204 22.3229 69.4595 23.4699 69.4595 24.8182ZM66.8093 24.8182C66.8093 23.9448 66.6785 23.2083 66.4169 22.6087C66.1593 22.009 65.7951 21.5542 65.3242 21.2443C64.8533 20.9344 64.302 20.7795 63.6701 20.7795C63.0382 20.7795 62.4869 20.9344 62.016 21.2443C61.5451 21.5542 61.1789 22.009 60.9173 22.6087C60.6597 23.2083 60.5309 23.9448 60.5309 24.8182C60.5309 25.6915 60.6597 26.428 60.9173 27.0277C61.1789 27.6274 61.5451 28.0821 62.016 28.392C62.4869 28.7019 63.0382 28.8569 63.6701 28.8569C64.302 28.8569 64.8533 28.7019 65.3242 28.392C65.7951 28.0821 66.1593 27.6274 66.4169 27.0277C66.6785 26.428 66.8093 25.6915 66.8093 24.8182ZM71.3959 31V18.6364H76.2737C77.2074 18.6364 78.0043 18.8034 78.6643 19.1374C79.3284 19.4674 79.8335 19.9363 80.1796 20.544C80.5297 21.1477 80.7048 21.8581 80.7048 22.6751C80.7048 23.4961 80.5277 24.2024 80.1736 24.794C79.8194 25.3816 79.3063 25.8324 78.6341 26.1463C77.9661 26.4602 77.1571 26.6172 76.2073 26.6172H72.9413V24.5163H75.7847C76.2838 24.5163 76.6983 24.4479 77.0283 24.3111C77.3583 24.1742 77.6038 23.969 77.7648 23.6953C77.9298 23.4216 78.0123 23.0816 78.0123 22.6751C78.0123 22.2646 77.9298 21.9184 77.7648 21.6367C77.6038 21.355 77.3563 21.1417 77.0223 20.9968C76.6923 20.8479 76.2757 20.7734 75.7726 20.7734H74.0099V31H71.3959ZM78.0727 25.3736L81.1455 31H78.2599L75.2535 25.3736H78.0727ZM93.9136 24.8182C93.9136 26.1664 93.6581 27.3134 93.1469 28.2592C92.6398 29.205 91.9476 29.9274 91.0702 30.4265C90.1969 30.9215 89.2149 31.169 88.1242 31.169C87.0255 31.169 86.0394 30.9195 85.1661 30.4205C84.2928 29.9214 83.6025 29.199 83.0954 28.2532C82.5883 27.3074 82.3348 26.1624 82.3348 24.8182C82.3348 23.4699 82.5883 22.3229 83.0954 21.3771C83.6025 20.4313 84.2928 19.7109 85.1661 19.2159C86.0394 18.7169 87.0255 18.4673 88.1242 18.4673C89.2149 18.4673 90.1969 18.7169 91.0702 19.2159C91.9476 19.7109 92.6398 20.4313 93.1469 21.3771C93.6581 22.3229 93.9136 23.4699 93.9136 24.8182ZM91.2634 24.8182C91.2634 23.9448 91.1326 23.2083 90.871 22.6087C90.6134 22.009 90.2492 21.5542 89.7783 21.2443C89.3074 20.9344 88.7561 20.7795 88.1242 20.7795C87.4923 20.7795 86.941 20.9344 86.4701 21.2443C85.9992 21.5542 85.633 22.009 85.3714 22.6087C85.1138 23.2083 84.985 23.9448 84.985 24.8182C84.985 25.6915 85.1138 26.428 85.3714 27.0277C85.633 27.6274 85.9992 28.0821 86.4701 28.392C86.941 28.7019 87.4923 28.8569 88.1242 28.8569C88.7561 28.8569 89.3074 28.7019 89.7783 28.392C90.2492 28.0821 90.6134 27.6274 90.871 27.0277C91.1326 26.428 91.2634 25.6915 91.2634 24.8182ZM95.85 18.6364H99.0737L102.479 26.9432H102.623L106.028 18.6364H109.252V31H106.716V22.9528H106.614L103.414 30.9396H101.688L98.4881 22.9226H98.3855V31H95.85V18.6364ZM119.042 18.6364H121.656V26.6655C121.656 27.567 121.441 28.3558 121.01 29.032C120.584 29.7081 119.986 30.2353 119.217 30.6136C118.449 30.9879 117.553 31.1751 116.531 31.1751C115.505 31.1751 114.607 30.9879 113.839 30.6136C113.07 30.2353 112.472 29.7081 112.046 29.032C111.619 28.3558 111.406 27.567 111.406 26.6655V18.6364H114.02V26.4421C114.02 26.913 114.122 27.3316 114.328 27.6978C114.537 28.064 114.831 28.3518 115.209 28.5611C115.587 28.7704 116.028 28.875 116.531 28.875C117.038 28.875 117.479 28.7704 117.853 28.5611C118.231 28.3518 118.523 28.064 118.728 27.6978C118.938 27.3316 119.042 26.913 119.042 26.4421V18.6364ZM123.674 31V29.4485L129.844 20.7915H123.662V18.6364H133.128V20.1879L126.952 28.8448H133.14V31H123.674ZM136.601 31.157C136.202 31.157 135.86 31.0161 135.574 30.7344C135.293 30.4486 135.152 30.1065 135.152 29.7081C135.152 29.3137 135.293 28.9756 135.574 28.6939C135.86 28.4122 136.202 28.2713 136.601 28.2713C136.987 28.2713 137.325 28.4122 137.615 28.6939C137.905 28.9756 138.05 29.3137 138.05 29.7081C138.05 29.9737 137.981 30.2172 137.844 30.4386C137.712 30.6559 137.536 30.831 137.319 30.9638C137.102 31.0926 136.862 31.157 136.601 31.157ZM139.157 20.7915V18.6364H149.312V20.7915H145.526V31H142.943V20.7915H139.157ZM154.39 18.6364H156.974V27.2571C156.974 28.054 156.795 28.7462 156.437 29.3338C156.082 29.9214 155.589 30.3742 154.958 30.6921C154.326 31.0101 153.591 31.169 152.754 31.169C152.01 31.169 151.333 31.0382 150.726 30.7766C150.122 30.511 149.643 30.1085 149.289 29.5692C148.935 29.0259 148.76 28.3437 148.764 27.5227H151.366C151.374 27.8487 151.44 28.1284 151.565 28.3619C151.694 28.5913 151.869 28.7683 152.09 28.8931C152.315 29.0138 152.581 29.0742 152.887 29.0742C153.209 29.0742 153.481 29.0058 153.702 28.869C153.927 28.7281 154.098 28.5228 154.215 28.2532C154.332 27.9835 154.39 27.6515 154.39 27.2571V18.6364Z" fill="#2C2B2B"/>
</g>
<defs>
<clipPath id="clip0_14_130">
<rect width="160" height="50" fill="white"/>
</clipPath>
</defs>
</svg>
