<svg width="18" height="18" viewBox="0 0 18 18" fill="none" xmlns="http://www.w3.org/2000/svg">
<path d="M17.9747 10.019C17.9747 10.0189 17.9747 10.0189 17.9746 10.0188L14.5762 1.48551C14.5041 1.3042 14.2985 1.21569 14.1172 1.28781C14.1171 1.28786 14.117 1.2879 14.1168 1.28799L0.329671 6.7779C0.273445 6.8022 0.224683 6.84098 0.188333 6.89027C0.0736724 6.94985 0.00123671 7.06778 0 7.19697V16.3839C0 16.5791 0.15821 16.7373 0.353345 16.7373H15.1938C15.389 16.7373 15.5472 16.5791 15.5472 16.3839V11.3664L17.7775 10.4781C17.9587 10.4058 18.047 10.2003 17.9747 10.019ZM14.8405 16.0306H0.70669V7.55032H14.8405V16.0306ZM5.89556 6.84539L11.812 4.48788C12.34 5.04289 13.0716 5.35834 13.8377 5.36135L14.4278 6.84539H5.89556ZM15.5472 10.6075V7.19697C15.5472 7.00184 15.389 6.84363 15.1938 6.84363H15.1882L14.4394 4.96313C14.4311 4.94745 14.4215 4.93252 14.4105 4.91861C14.3726 4.74843 14.215 4.63231 14.0412 4.64653C13.3284 4.7115 12.6311 4.41125 12.1886 3.84868C12.0785 3.71277 11.885 3.67898 11.7353 3.76953C11.7185 3.77152 11.7019 3.77461 11.6855 3.77872L4.46239 6.65494C4.37498 6.68922 4.30506 6.75719 4.2684 6.84363H2.07484L14.0504 2.07524L17.1877 9.95306L15.5472 10.6075Z" fill="#696969"/>
<path d="M1.66562 13.6451C2.35164 13.8479 2.88846 14.384 3.09207 15.0698C3.13673 15.2195 3.2744 15.322 3.43058 15.3221C3.4489 15.3209 3.4671 15.3182 3.48499 15.3139C3.50085 15.3185 3.51706 15.3218 3.5334 15.3238H12.0137C12.0282 15.3219 12.0426 15.319 12.0568 15.315C12.2333 15.3579 12.4112 15.2497 12.4542 15.0731C12.4543 15.0725 12.4545 15.0719 12.4546 15.0712C12.6577 14.3847 13.1946 13.8478 13.8811 13.6447C14.0476 13.5939 14.151 13.428 14.1235 13.2561C14.1282 13.2389 14.1316 13.2214 14.1337 13.2038V10.377C14.1317 10.3593 14.1281 10.3418 14.1231 10.3247C14.1508 10.1528 14.0473 9.9868 13.8807 9.93605C13.1943 9.73301 12.6575 9.19588 12.455 8.50925C12.4039 8.34163 12.2363 8.23792 12.0635 8.26685C12.0472 8.2623 12.0305 8.25899 12.0137 8.25696H3.5334C3.5156 8.25908 3.49798 8.26261 3.48075 8.26756C3.30889 8.24017 3.14309 8.34357 3.09207 8.50995C2.88885 9.19628 2.35199 9.73301 1.66562 9.93605C1.49915 9.98693 1.39571 10.1528 1.42322 10.3247C1.41863 10.3419 1.41532 10.3594 1.41333 10.377V13.2038C1.41536 13.2204 1.41867 13.2368 1.42322 13.2529C1.39425 13.4259 1.49791 13.5936 1.66562 13.6451ZM2.12002 10.5205C2.82954 10.2355 3.39188 9.67316 3.67686 8.96365H11.8699C12.155 9.67316 12.7174 10.2355 13.4271 10.5205V13.0603C12.7178 13.3456 12.1555 13.9079 11.8702 14.6172H3.67686C3.39157 13.9079 2.82931 13.3456 2.12002 13.0603V10.5205Z" fill="#696969"/>
<path d="M7.77363 13.9105C8.94453 13.9105 9.8937 12.9613 9.8937 11.7904C9.8937 10.6195 8.94453 9.67035 7.77363 9.67035C6.60274 9.67035 5.65356 10.6195 5.65356 11.7904C5.65471 12.9608 6.60322 13.9093 7.77363 13.9105ZM7.77363 10.377C8.55422 10.377 9.18701 11.0098 9.18701 11.7904C9.18701 12.571 8.55422 13.2038 7.77363 13.2038C6.99305 13.2038 6.36025 12.571 6.36025 11.7904C6.36025 11.0098 6.99305 10.377 7.77363 10.377Z" fill="#696969"/>
<path d="M3.88683 12.3205C4.17953 12.3205 4.41685 12.0832 4.41685 11.7905C4.41685 11.4978 4.17953 11.2604 3.88683 11.2604C3.59413 11.2604 3.35681 11.4978 3.35681 11.7905C3.35681 12.0832 3.59413 12.3205 3.88683 12.3205ZM3.88683 11.6138C3.9844 11.6138 4.0635 11.6929 4.0635 11.7905C4.0635 11.888 3.9844 11.9671 3.88683 11.9671C3.78926 11.9671 3.71016 11.888 3.71016 11.7905C3.71016 11.6929 3.78926 11.6138 3.88683 11.6138Z" fill="#696969"/>
<path d="M11.6604 12.3205C11.9531 12.3205 12.1904 12.0832 12.1904 11.7905C12.1904 11.4978 11.9531 11.2604 11.6604 11.2604C11.3677 11.2604 11.1304 11.4978 11.1304 11.7905C11.1304 12.0832 11.3677 12.3205 11.6604 12.3205ZM11.6604 11.6138C11.758 11.6138 11.8371 11.6929 11.8371 11.7905C11.8371 11.888 11.758 11.9671 11.6604 11.9671C11.5628 11.9671 11.4837 11.888 11.4837 11.7905C11.4837 11.6929 11.5628 11.6138 11.6604 11.6138Z" fill="#696969"/>
</svg>
