<svg width="40" height="40" viewBox="0 0 40 40" fill="none" xmlns="http://www.w3.org/2000/svg">
<path d="M32.5388 23.1259C31.1361 21.51 29.1976 20.4537 27.0796 20.1509L22.2174 19.3884V10.903C22.2174 8.88791 20.5779 7.24854 18.5628 7.24854H18.5081C16.4931 7.24854 14.8536 8.88791 14.8536 10.903V24.5304L9.82694 22.3761C8.81727 21.9435 7.66638 22.0459 6.74892 22.651C5.83159 23.2558 5.284 24.2731 5.284 25.3718V25.4177C5.284 26.3475 5.68253 27.2353 6.37742 27.8531L14.8537 35.3904V39.0523C14.8537 39.5757 15.2777 39.9997 15.8011 39.9997C16.3244 39.9997 16.7485 39.5757 16.7485 39.0523V34.9651C16.7485 34.6945 16.6328 34.4369 16.4305 34.2572L7.63644 26.4373C7.34553 26.1786 7.17879 25.8071 7.17879 25.4178V25.3719C7.17879 24.9052 7.40237 24.49 7.79194 24.2329C8.18189 23.9759 8.6518 23.934 9.08052 24.1178L15.4268 26.8377C15.4852 26.8629 15.5466 26.8826 15.6103 26.8956C15.7052 26.9152 15.801 26.9195 15.8946 26.91C15.9052 26.909 15.9155 26.907 15.926 26.9056C15.9456 26.9029 15.9653 26.9004 15.9846 26.8966C16.0016 26.8933 16.0181 26.8887 16.0347 26.8845C16.0473 26.8812 16.0599 26.8785 16.0724 26.8748C16.0912 26.8692 16.1096 26.8624 16.1279 26.8556C16.138 26.8519 16.1483 26.8485 16.1583 26.8444C16.1763 26.8371 16.1937 26.8288 16.211 26.8204C16.2212 26.8155 16.2317 26.811 16.2417 26.8057C16.2572 26.7974 16.2721 26.7884 16.2872 26.7794C16.2987 26.7724 16.3104 26.7659 16.3217 26.7584C16.3343 26.7501 16.3462 26.741 16.3584 26.7321C16.3713 26.7227 16.3843 26.7136 16.3968 26.7035C16.4068 26.6954 16.4161 26.6865 16.4259 26.6781C16.4393 26.6662 16.4529 26.6545 16.4657 26.6418C16.4742 26.6334 16.4822 26.6243 16.4904 26.6156C16.503 26.6022 16.5157 26.589 16.5274 26.5747C16.5365 26.5639 16.5446 26.5524 16.5532 26.5413C16.563 26.5284 16.573 26.5159 16.5822 26.5025C16.5939 26.4854 16.6044 26.4678 16.6148 26.4499C16.6199 26.4415 16.6253 26.4335 16.6301 26.4249C16.6756 26.3426 16.7095 26.2529 16.7289 26.1579C16.742 26.0944 16.7481 26.0303 16.7481 25.9669V10.903C16.7481 9.93269 17.5375 9.14332 18.5079 9.14332H18.5626C19.5329 9.14332 20.3223 9.93269 20.3223 10.903V20.0011C20.3223 20.0361 20.3246 20.0707 20.3282 20.1047C20.2782 20.6015 20.6237 21.0565 21.1229 21.1347L26.7921 22.0236C26.7967 22.0244 26.8011 22.025 26.8057 22.0257C30.235 22.513 32.8211 25.4924 32.8211 28.9564V29.0531C32.8211 30.6561 32.4299 32.2552 31.6898 33.6772L29.1198 38.6147C28.8782 39.079 29.0587 39.6509 29.5227 39.8925C29.6624 39.9652 29.8119 39.9998 29.9593 39.9998C30.3013 39.9998 30.6316 39.8139 30.8004 39.4896L33.3703 34.5521C34.2507 32.8609 34.7158 30.9595 34.7158 29.0531V28.9564C34.7161 26.8144 33.9428 24.7438 32.5388 23.1259Z" fill="#1A3454"/>
<path d="M18.5355 4.7736C19.0588 4.7736 19.4829 4.34955 19.4829 3.82621V0.947394C19.4829 0.424054 19.0588 0 18.5355 0C18.0121 0 17.5881 0.424054 17.5881 0.947394V3.82621C17.5881 4.34955 18.0123 4.7736 18.5355 4.7736Z" fill="#1A3454"/>
<path d="M24.4036 12.4926C24.4036 13.016 24.8276 13.44 25.351 13.44H28.2298C28.7531 13.44 29.1772 13.016 29.1772 12.4926C29.1772 11.9693 28.7531 11.5452 28.2298 11.5452H25.351C24.8277 11.5452 24.4036 11.9694 24.4036 12.4926Z" fill="#1A3454"/>
<path d="M24.6 7.13299C24.8424 7.13299 25.085 7.04053 25.27 6.8556L27.3057 4.81996C27.6756 4.44985 27.6756 3.85008 27.3057 3.48009C26.9355 3.11023 26.3358 3.11023 25.9658 3.48009L23.93 5.5156C23.56 5.88572 23.56 6.48548 23.93 6.85547C24.1151 7.0404 24.3576 7.13299 24.6 7.13299Z" fill="#1A3454"/>
<path d="M11.0556 6.85545C11.2407 7.04038 11.4832 7.13284 11.7256 7.13284C11.968 7.13284 12.2106 7.04038 12.3956 6.85545C12.7656 6.48533 12.7656 5.88557 12.3956 5.51558L10.3599 3.47994C9.98974 3.11008 9.38997 3.11008 9.01998 3.47994C8.65 3.85006 8.65 4.44982 9.01998 4.81981L11.0556 6.85545Z" fill="#1A3454"/>
<path d="M8.13746 13.44H11.0163C11.5396 13.44 11.9637 13.016 11.9637 12.4926C11.9637 11.9693 11.5396 11.5452 11.0163 11.5452H8.13746C7.61412 11.5452 7.19006 11.9693 7.19006 12.4926C7.19006 13.016 7.61412 13.44 8.13746 13.44Z" fill="#1A3454"/>
</svg>
