<svg width="35" height="35" viewBox="0 0 35 35" fill="none" xmlns="http://www.w3.org/2000/svg">
<g clip-path="url(#clip0_0_554)">
<path d="M17.5 11.2797C14.07 11.2797 11.2795 14.0701 11.2795 17.5001C11.2795 18.7077 11.6258 19.8358 12.2238 20.791C12.242 20.8263 12.2638 20.8602 12.2886 20.8925C13.3998 22.5938 15.3207 23.7205 17.5 23.7205C20.93 23.7205 23.7204 20.93 23.7204 17.5001C23.7204 14.0702 20.93 11.2797 17.5 11.2797ZM13.0079 19.3349C12.7757 18.7685 12.6467 18.1492 12.6467 17.5001C12.6467 14.824 14.8238 12.6469 17.5 12.6469C19.1375 12.6469 20.5871 13.4629 21.4665 14.7088L17.7121 18.4631L16.2793 17.0304C16.0123 16.7635 15.5796 16.7635 15.3125 17.0304L13.0079 19.3349ZM17.5 22.3533C15.978 22.3533 14.6181 21.6485 13.7276 20.5489L15.7959 18.4805L17.2287 19.9132C17.4957 20.1802 17.9284 20.1801 18.1955 19.9132L22.1133 15.9954C22.2684 16.4694 22.3533 16.9749 22.3533 17.5C22.3532 20.1762 20.176 22.3533 17.5 22.3533Z" fill="#1967D2"/>
<path d="M28.0167 17.0284C27.9094 13.6878 26.9745 10.4118 25.2966 7.51504C23.5102 4.43107 20.9317 1.8637 17.84 0.0905933C17.6295 -0.0301978 17.3705 -0.0301978 17.1599 0.0905933C14.0683 1.8637 11.4898 4.43107 9.70334 7.51497C8.02539 10.4117 7.09058 13.6878 6.98318 17.0283C4.58678 18.0567 3.00781 20.4231 3.00781 23.0611V27.8906C3.00781 28.2682 3.31393 28.5742 3.69141 28.5742H13.7362C13.8835 30.6304 14.7837 32.5998 16.2575 34.0519L17.0202 34.8034C17.1532 34.9345 17.3266 35 17.5 35C17.6734 35 17.8467 34.9345 17.9798 34.8034L18.7425 34.0519C20.2163 32.5998 21.1165 30.6305 21.2638 28.5743H23.3789V32.1025C23.3789 32.48 23.685 32.7861 24.0625 32.7861C24.44 32.7861 24.7461 32.48 24.7461 32.1025V28.5742H31.3086C31.6861 28.5742 31.9922 28.2682 31.9922 27.8906V23.0612C31.9922 20.4231 30.4132 18.0567 28.0167 17.0284ZM17.5 1.47637C19.6494 2.76967 21.4867 4.46183 22.9396 6.4258H12.0604C13.5133 4.46183 15.3506 2.76967 17.5 1.47637ZM4.375 27.207V23.0611C4.375 21.1816 5.3874 19.4762 6.97266 18.5601V26.5235C6.97266 26.7631 7.01436 26.9931 7.09023 27.207H4.375ZM17.7829 33.078L17.5 33.3568L17.2171 33.078C16.0024 31.8813 15.2519 30.2661 15.1076 28.5742H19.8924C19.748 30.2661 18.9975 31.8813 17.7829 33.078ZM26.6602 26.5235C26.6602 26.9004 26.3535 27.207 25.9766 27.207H9.02344C8.6465 27.207 8.33984 26.9004 8.33984 26.5235V17.6769C8.33984 15.2016 8.82875 12.7896 9.73629 10.5615H12.8315C13.209 10.5615 13.5151 10.2555 13.5151 9.87795C13.5151 9.5004 13.209 9.19435 12.8315 9.19435H10.3573C10.5976 8.71638 10.8581 8.24887 11.1378 7.79299H23.8622C25.659 10.7225 26.6602 14.1348 26.6602 17.6769V26.5235ZM30.625 27.207H27.9098C27.9856 26.9931 28.0273 26.7631 28.0273 26.5235V18.5601C29.6126 19.4762 30.625 21.1816 30.625 23.0612V27.207Z" fill="#1967D2"/>
<path d="M15.7957 9.39463C15.6687 9.26748 15.4923 9.19434 15.3125 9.19434C15.1327 9.19434 14.9563 9.26748 14.8292 9.39463C14.7021 9.52178 14.6289 9.69814 14.6289 9.87793C14.6289 10.0577 14.702 10.2341 14.8292 10.3612C14.9564 10.4884 15.1327 10.5615 15.3125 10.5615C15.4923 10.5615 15.6687 10.4884 15.7957 10.3612C15.9229 10.2341 15.9961 10.0577 15.9961 9.87793C15.9961 9.69814 15.9229 9.52178 15.7957 9.39463Z" fill="#1967D2"/>
<path d="M10.9375 30.403C10.56 30.403 10.2539 30.709 10.2539 31.0865V33.1924C10.2539 33.57 10.56 33.876 10.9375 33.876C11.315 33.876 11.6211 33.57 11.6211 33.1924V31.0865C11.6211 30.709 11.315 30.403 10.9375 30.403Z" fill="#1967D2"/>
<path d="M24.5457 33.8331C24.4187 33.706 24.2423 33.6328 24.0625 33.6328C23.8827 33.6328 23.7063 33.706 23.5792 33.8331C23.4521 33.9603 23.3789 34.1366 23.3789 34.3164C23.3789 34.4962 23.452 34.6726 23.5792 34.7997C23.7064 34.9269 23.8827 35 24.0625 35C24.2423 35 24.4187 34.9269 24.5457 34.7997C24.6729 34.6726 24.7461 34.4962 24.7461 34.3164C24.7461 34.1366 24.6729 33.9603 24.5457 33.8331Z" fill="#1967D2"/>
</g>
<defs>
<clipPath id="clip0_0_554">
<rect width="35" height="35" fill="white"/>
</clipPath>
</defs>
</svg>
