<svg width="18" height="18" viewBox="0 0 18 18" fill="none" xmlns="http://www.w3.org/2000/svg">
<path d="M13.8033 4.19668C12.3867 2.78015 10.5033 2 8.5 2C6.49668 2 4.61327 2.78015 3.19668 4.19668C1.78015 5.61327 1 7.49668 1 9.5C1 11.5033 1.78015 13.3867 3.19668 14.8033C4.61327 16.2199 6.49668 17 8.5 17C9.87147 17 11.2134 16.6263 12.3807 15.9192C12.6575 15.7515 12.746 15.3912 12.5783 15.1144C12.4107 14.8376 12.0503 14.7492 11.7736 14.9168C10.7893 15.513 9.65737 15.8281 8.5 15.8281C5.01065 15.8281 2.17188 12.9893 2.17188 9.5C2.17188 6.01065 5.01065 3.17188 8.5 3.17188C11.9893 3.17188 14.8281 6.01065 14.8281 9.5C14.8281 10.7477 14.4571 11.9622 13.7551 13.0123C13.5752 13.2813 13.6475 13.6452 13.9165 13.825C14.1856 14.0049 14.5494 13.9326 14.7293 13.6636C15.5606 12.4201 16 10.9804 16 9.5C16 7.49668 15.2199 5.61327 13.8033 4.19668Z" fill="#696969"/>
<path d="M8.49989 4.22656C8.17627 4.22656 7.91395 4.48889 7.91395 4.8125V9.25731L5.76538 11.4059C5.53654 11.6347 5.53654 12.0057 5.76538 12.2345C5.87978 12.3489 6.02972 12.4061 6.17969 12.4061C6.32966 12.4061 6.47961 12.3489 6.59401 12.2345L8.9142 9.91432C9.02409 9.80445 9.08582 9.65539 9.08582 9.5V4.8125C9.08582 4.48889 8.8235 4.22656 8.49989 4.22656Z" fill="#696969"/>
</svg>
