<svg width="42" height="42" viewBox="0 0 42 42" fill="none" xmlns="http://www.w3.org/2000/svg">
<path d="M26.7492 7C23.0675 7 20.0828 10.134 20.0828 14C20.0828 14.5842 20.151 15.1517 20.2794 15.6941C16.7393 15.6941 11.4071 14.9784 6.95386 10.5168C6.36169 9.92353 5.26974 10.3202 5.31082 11.1574C5.97079 24.6096 11.7319 28.5336 14.6988 28.7778C12.783 30.6699 10 32.1635 7.19965 32.8338C6.46058 33.0107 6.27801 33.8198 7.0007 34.0549C9.00449 34.7066 11.8726 34.9576 13.4165 35C24.3379 35 33.2147 25.8075 33.4122 14.389C34.8461 13.4565 35.7646 11.4319 36.2807 9.99759C36.4063 9.64828 35.8339 9.24127 35.4911 9.38396C34.42 9.82988 33.0601 9.9356 31.9018 9.55816C30.6792 7.99621 28.825 7 26.7492 7Z" fill="white"/>
</svg>
