<svg width="113" height="14" viewBox="0 0 113 14" fill="none" xmlns="http://www.w3.org/2000/svg">
<path d="M112.473 11.3888L104.963 2.61689L101.121 13.5059L112.473 11.3888ZM1.41434 11.9641C2.13043 11.6381 2.90509 11.3055 3.73635 10.9692L2.98629 9.11519C2.13068 9.46134 1.32968 9.80516 0.585614 10.1439L1.41434 11.9641ZM8.54914 9.20549C10.0706 8.69834 11.7081 8.19475 13.4546 7.70413L12.9137 5.77866C11.1376 6.27757 9.46955 6.79049 7.91667 7.30812L8.54914 9.20549ZM18.4277 6.41846C20.0298 6.03829 21.7018 5.67289 23.4397 5.32754L23.0499 3.3659C21.288 3.71601 19.5921 4.08663 17.966 4.47249L18.4277 6.41846ZM28.497 4.41363C30.1492 4.14409 31.8504 3.89436 33.5977 3.66816L33.3409 1.68471C31.5717 1.91376 29.8487 2.16667 28.175 2.43973L28.497 4.41363ZM38.6979 3.0906C40.3744 2.92761 42.0871 2.78727 43.834 2.67243L43.7028 0.676737C41.9349 0.792963 40.2014 0.935002 38.5044 1.09999L38.6979 3.0906ZM48.967 2.41435C50.6543 2.35548 52.3695 2.32112 54.1107 2.31358L54.102 0.3136C52.3402 0.321232 50.6047 0.355997 48.8973 0.415572L48.967 2.41435ZM59.2636 2.36979C60.9546 2.41399 62.6672 2.4841 64.4001 2.58207L64.513 0.585257C62.7597 0.486135 61.0268 0.415191 59.3158 0.370471L59.2636 2.36979ZM69.5294 2.95021C71.2193 3.09731 72.9263 3.2715 74.6491 3.47444L74.8831 1.48818C73.1399 1.28283 71.4127 1.10659 69.7028 0.957743L69.5294 2.95021ZM79.753 4.15472C81.4341 4.40494 83.1285 4.68313 84.8351 4.99077L85.1899 3.02249C83.463 2.71119 81.7485 2.4297 80.0475 2.17652L79.753 4.15472ZM89.8799 5.97998C91.5412 6.33222 93.2127 6.71297 94.8936 7.12355L95.3682 5.18067C93.6673 4.76519 91.9758 4.37991 90.2947 4.02348L89.8799 5.97998ZM99.871 8.42056C101.509 8.8743 103.155 9.35699 104.807 9.86982L105.4 7.95969C103.728 7.44075 102.062 6.9523 100.405 6.49315L99.871 8.42056Z" fill="#1967D2"/>
</svg>
