<svg width="304" height="77" viewBox="0 0 304 77" fill="none" xmlns="http://www.w3.org/2000/svg">
<path fill-rule="evenodd" clip-rule="evenodd" d="M31.289 56.9974C33.0215 57.6243 34.4354 57.8548 36.4827 57.7872C36.7655 56.631 37.6149 55.3463 38.1464 54.2851C38.736 53.1077 39.2139 51.369 40.0713 50.8109C41.2242 52.2803 41.5408 54.7572 41.708 56.7828C43.385 56.515 46.3003 55.0495 47.0444 53.6814C47.2806 43.2115 39.4441 36.2314 45.1969 19.7056C45.5651 18.6481 46.6273 17.0373 47.1613 16C39.4766 19.6017 38.6733 29.6347 36.8456 31.3175L36.4176 31.511C33.2933 32.609 32.8634 32.1601 28.9489 31.4511C23.9494 30.5457 19.2635 30.4446 15.1601 32.5612C14.2376 31.9 14.4766 31.6378 13.5177 31.3455L12.8842 32.0548C14.0169 32.5956 13.5853 31.6164 14.8189 32.9992C16.4533 34.8317 15.0662 33.9361 15.7076 35.0851C17.0735 34.4986 16.3856 34.2953 15.8296 33.1058C23.4829 31.8943 27.9809 34.2475 30.8451 39.1451C34.4253 45.2671 33.4399 51.1209 31.289 56.9974Z" fill="#1967D2"/>
<path fill-rule="evenodd" clip-rule="evenodd" d="M47.0441 53.6815C46.2999 55.0496 43.3847 56.515 41.7076 56.7828C40.3678 57.5983 38.2737 57.7144 36.4823 57.7873C34.435 57.8548 33.0211 57.6244 31.2887 56.9974C24.3719 54.9753 19.5379 48.4406 19.3515 41.4264C19.2231 36.5923 20.7413 35.0333 20.4915 33.6646L18.1741 33.5157C17.7981 34.0571 17.5648 34.8338 17.3907 35.4508C16.9828 36.8959 17.0941 36.3874 17.6722 37.2445C19.1275 39.4021 17.5733 39.7464 16.7321 41.1453C16.9609 50.6603 23.58 57.6196 31.1173 59.6904C41.3545 62.5029 50.3588 56.5177 53.398 50.4309C57.0988 51.3508 52.2267 51.0317 57.5658 53.207C59.4024 53.9554 60.9916 54.7046 62.7316 55.437C64.7206 56.2743 71.6481 59.5693 73.1709 59.7065C73.7557 58.7132 75.2519 55.6845 75.3645 54.2853C73.766 53.1329 67.5059 50.7531 65.3424 49.8255L57.7104 46.5377C55.9821 46.3556 58.4387 47.4348 55.2747 46.6833C55.6543 41.8948 57.1555 38.1462 53.8325 31.7735C51.9842 28.2288 48.6961 24.6315 44.9984 23.1377L44.3601 25.8409C51.5952 29.0414 55.6818 39.3789 51.8452 47.7155C50.935 49.6932 48.6166 53.3278 47.0441 53.6815Z" fill="#1967D2"/>
<path fill-rule="evenodd" clip-rule="evenodd" d="M30.9787 20.7486C24.9007 22.3821 28.4453 32.942 34.4061 31.0622C39.849 29.3458 36.751 19.1973 30.9787 20.7486Z" fill="#1967D2"/>
<path fill-rule="evenodd" clip-rule="evenodd" d="M11.6004 44.3646C12.5775 43.9779 15.8678 40.8412 16.1983 40.1166C11.4973 38.2585 9.66977 39.9446 8.28752 32.9377C8.22347 32.6126 8.19439 32.3405 8.10147 32.0284C7.89389 31.3308 8.07674 31.7413 7.76796 31.2361C6.71829 31.877 5.47325 33.3099 4.40381 34.2231C2.05829 36.2261 4.62856 37.3642 8.1025 41.3583C8.79114 42.1501 10.29 44.1677 11.6004 44.3646Z" fill="#1967D2"/>
<path fill-rule="evenodd" clip-rule="evenodd" d="M8.99944 30.084C8.47305 31.6237 9.81608 36.103 10.7659 37.049C11.5179 37.798 12.627 38.1925 13.6888 38.5334C14.2394 38.7102 14.742 38.837 15.3763 39.0344C15.6699 39.1258 16.0225 39.2772 16.3385 39.3138C18.8491 39.6046 16.9513 37.4778 15.9741 36.4967L11.6558 31.7842C10.8731 30.8707 10.5259 29.8839 8.99944 30.084Z" fill="#1967D2"/>
<path fill-rule="evenodd" clip-rule="evenodd" d="M19.8943 30.1296L23.0601 30.177C24.0195 28.6218 25.5077 27.4432 27.1775 26.4472L27.2748 23.3789C24.7245 24.2028 20.9062 27.8998 19.8943 30.1296Z" fill="#1967D2"/>
<path d="M94.5227 50V26.7273H99.4432V36.9886H99.75L108.125 26.7273H114.023L105.386 37.1477L114.125 50H108.239L101.864 40.4318L99.4432 43.3864V50H94.5227ZM136.659 38.3636C136.659 40.9015 136.178 43.0606 135.216 44.8409C134.261 46.6212 132.958 47.9811 131.307 48.9205C129.663 49.8523 127.814 50.3182 125.761 50.3182C123.693 50.3182 121.837 49.8485 120.193 48.9091C118.549 47.9697 117.25 46.6098 116.295 44.8295C115.341 43.0492 114.864 40.8939 114.864 38.3636C114.864 35.8258 115.341 33.6667 116.295 31.8864C117.25 30.1061 118.549 28.75 120.193 27.8182C121.837 26.8788 123.693 26.4091 125.761 26.4091C127.814 26.4091 129.663 26.8788 131.307 27.8182C132.958 28.75 134.261 30.1061 135.216 31.8864C136.178 33.6667 136.659 35.8258 136.659 38.3636ZM131.67 38.3636C131.67 36.7197 131.424 35.3333 130.932 34.2045C130.447 33.0758 129.761 32.2197 128.875 31.6364C127.989 31.053 126.951 30.7614 125.761 30.7614C124.572 30.7614 123.534 31.053 122.648 31.6364C121.761 32.2197 121.072 33.0758 120.58 34.2045C120.095 35.3333 119.852 36.7197 119.852 38.3636C119.852 40.0076 120.095 41.3939 120.58 42.5227C121.072 43.6515 121.761 44.5076 122.648 45.0909C123.534 45.6742 124.572 45.9659 125.761 45.9659C126.951 45.9659 127.989 45.6742 128.875 45.0909C129.761 44.5076 130.447 43.6515 130.932 42.5227C131.424 41.3939 131.67 40.0076 131.67 38.3636ZM140.304 50V26.7273H149.486C151.243 26.7273 152.743 27.0417 153.986 27.6705C155.236 28.2917 156.187 29.1742 156.838 30.3182C157.497 31.4545 157.827 32.7917 157.827 34.3295C157.827 35.875 157.493 37.2045 156.827 38.3182C156.16 39.4242 155.194 40.2727 153.929 40.8636C152.671 41.4545 151.149 41.75 149.361 41.75H143.213V37.7955H148.565C149.505 37.7955 150.285 37.6667 150.906 37.4091C151.527 37.1515 151.99 36.7652 152.293 36.25C152.603 35.7348 152.759 35.0947 152.759 34.3295C152.759 33.5568 152.603 32.9053 152.293 32.375C151.99 31.8447 151.524 31.4432 150.895 31.1705C150.274 30.8902 149.49 30.75 148.543 30.75H145.224V50H140.304ZM152.872 39.4091L158.656 50H153.224L147.565 39.4091H152.872ZM182.69 38.3636C182.69 40.9015 182.209 43.0606 181.247 44.8409C180.293 46.6212 178.99 47.9811 177.338 48.9205C175.694 49.8523 173.846 50.3182 171.793 50.3182C169.724 50.3182 167.868 49.8485 166.224 48.9091C164.58 47.9697 163.281 46.6098 162.327 44.8295C161.372 43.0492 160.895 40.8939 160.895 38.3636C160.895 35.8258 161.372 33.6667 162.327 31.8864C163.281 30.1061 164.58 28.75 166.224 27.8182C167.868 26.8788 169.724 26.4091 171.793 26.4091C173.846 26.4091 175.694 26.8788 177.338 27.8182C178.99 28.75 180.293 30.1061 181.247 31.8864C182.209 33.6667 182.69 35.8258 182.69 38.3636ZM177.702 38.3636C177.702 36.7197 177.455 35.3333 176.963 34.2045C176.478 33.0758 175.793 32.2197 174.906 31.6364C174.02 31.053 172.982 30.7614 171.793 30.7614C170.603 30.7614 169.565 31.053 168.679 31.6364C167.793 32.2197 167.103 33.0758 166.611 34.2045C166.126 35.3333 165.884 36.7197 165.884 38.3636C165.884 40.0076 166.126 41.3939 166.611 42.5227C167.103 43.6515 167.793 44.5076 168.679 45.0909C169.565 45.6742 170.603 45.9659 171.793 45.9659C172.982 45.9659 174.02 45.6742 174.906 45.0909C175.793 44.5076 176.478 43.6515 176.963 42.5227C177.455 41.3939 177.702 40.0076 177.702 38.3636ZM186.335 26.7273H192.403L198.812 42.3636H199.085L205.494 26.7273H211.562V50H206.79V34.8523H206.597L200.574 49.8864H197.324L191.301 34.7955H191.108V50H186.335V26.7273ZM229.991 26.7273H234.912V41.8409C234.912 43.5379 234.507 45.0227 233.696 46.2955C232.893 47.5682 231.768 48.5606 230.321 49.2727C228.874 49.9773 227.188 50.3295 225.264 50.3295C223.332 50.3295 221.643 49.9773 220.196 49.2727C218.749 48.5606 217.624 47.5682 216.821 46.2955C216.018 45.0227 215.616 43.5379 215.616 41.8409V26.7273H220.537V41.4205C220.537 42.3068 220.73 43.0947 221.116 43.7841C221.51 44.4735 222.063 45.0152 222.776 45.4091C223.488 45.803 224.317 46 225.264 46C226.219 46 227.048 45.803 227.753 45.4091C228.465 45.0152 229.014 44.4735 229.401 43.7841C229.795 43.0947 229.991 42.3068 229.991 41.4205V26.7273ZM238.71 50V47.0795L250.324 30.7841H238.688V26.7273H256.506V29.6477L244.881 45.9432H256.528V50H238.71ZM263.043 50.2955C262.293 50.2955 261.649 50.0303 261.111 49.5C260.58 48.9621 260.315 48.3182 260.315 47.5682C260.315 46.8258 260.58 46.1894 261.111 45.6591C261.649 45.1288 262.293 44.8636 263.043 44.8636C263.77 44.8636 264.406 45.1288 264.952 45.6591C265.497 46.1894 265.77 46.8258 265.77 47.5682C265.77 48.0682 265.641 48.5265 265.384 48.9432C265.134 49.3523 264.804 49.6818 264.395 49.9318C263.986 50.1742 263.535 50.2955 263.043 50.2955ZM267.855 30.7841V26.7273H286.969V30.7841H279.844V50H274.98V30.7841H267.855ZM296.528 26.7273H301.392V42.9545C301.392 44.4545 301.055 45.7576 300.381 46.8636C299.714 47.9697 298.786 48.822 297.597 49.4205C296.407 50.0189 295.025 50.3182 293.449 50.3182C292.047 50.3182 290.775 50.072 289.631 49.5795C288.494 49.0795 287.593 48.322 286.926 47.3068C286.259 46.2841 285.93 45 285.938 43.4545H290.835C290.85 44.0682 290.975 44.5947 291.21 45.0341C291.453 45.4659 291.782 45.7992 292.199 46.0341C292.623 46.2614 293.123 46.375 293.699 46.375C294.305 46.375 294.816 46.2462 295.233 45.9886C295.657 45.7235 295.979 45.3371 296.199 44.8295C296.419 44.322 296.528 43.697 296.528 42.9545V26.7273Z" fill="#202124"/>
</svg>
